#!OML:ASF E:\Mandelcareful walks\Project 1\Capture day 1\Session 1\Subject1.ASF
:FULLY-SPECIFIED
:DEGREES
282
root -13.1831 13.7107 -3.61106 -153.676 112.286 -171.508
lowerback 43.5333 0.748506 -1.40408
upperback 9.34035 0.916542 -3.18126
thorax -9.99136 0.908998 -3.18441
lowerneck -34.641 7.51719 -3.34162
upperneck 25.9128 17.9499 -13.7794
head 16.3731 5.05364 -1.04661
rclavicle -1.19271e-014 -8.74653e-015
rhumerus -25.9904 9.42616 -87.9413
rradius 49.9648
rwrist -69.3173
rhand 12.5007 -38.0112
rfingers 7.12502
rthumb 37.4941 -63.9463
lclavicle -1.19271e-014 -8.74653e-015
lhumerus 131.017 -76.5375 -32.8387
lradius 46.1575
lwrist 4.03012
lhand -32.7802 -23.8247
lfingers 7.12502
lthumb -6.00197 6.0703
rfemur -41.4823 -8.86996 -2.07145
rtibia 74.2578
rfoot -31.4656 -28.3726
rtoes -25.7789
lfemur -71.9711 11.408 -21.1802
ltibia 76.9538
lfoot -18.3341 1.26466
ltoes -5.61743
283
root -13.0329 13.7534 -3.67074 -154.712 112.11 -172.732
lowerback 43.4686 0.945581 -1.7171
upperback 9.3119 1.01252 -3.21491
thorax -9.99968 0.953279 -3.10027
lowerneck -34.6428 7.50261 -3.31057
upperneck 26.0803 17.7741 -13.3784
head 16.3726 5.02373 -0.933216
rclavicle -1.85864e-014 2.47984e-014
rhumerus -25.7567 9.05828 -87.9393
rradius 49.1571
rwrist -68.635
rhand 12.5395 -38.2316
rfingers 7.12502
rthumb 37.5308 -64.1569
lclavicle -1.85864e-014 2.47984e-014
lhumerus 132.268 -76.482 -33.7169
lradius 45.5829
lwrist 4.11147
lhand -32.1708 -23.5148
lfingers 7.12502
lthumb -5.41363 6.39606
rfemur -41.198 -9.12153 -1.60578
rtibia 73.6599
rfoot -30.3096 -29.031
rtoes -25.1963
lfemur -71.5365 11.0914 -20.9325
ltibia 77.0876
lfoot -19.2345 1.56819
ltoes -6.04426
284
root -12.8866 13.7912 -3.72579 -155.74 112.001 -173.952
lowerback 43.2282 1.0811 -1.97414
upperback 9.36958 1.06444 -3.30725
thorax -9.86122 0.980608 -3.08269
lowerneck -34.7082 7.34496 -3.53089
upperneck 26.3029 17.4102 -12.6651
head 16.325 4.93034 -0.699044
rclavicle -1.88162e-014 2.0745e-014
rhumerus -25.7828 8.99771 -88.0683
rradius 49.1166
rwrist -68.2666
rhand 11.2528 -38.7219
rfingers 7.12502
rthumb 36.3136 -64.9608
lclavicle -1.88162e-014 2.0745e-014
lhumerus 135.417 -75.6909 -36.8426
lradius 45.4431
lwrist 6.57467
lhand -34.2909 -23.878
lfingers 7.12502
lthumb -7.46035 5.97041
rfemur -40.9925 -9.33836 -1.12266
rtibia 73.0495
rfoot -29.3972 -29.2752
rtoes -23.7717
lfemur -71.1085 10.7782 -20.6839
ltibia 77.1913
lfoot -19.9252 1.86147
ltoes -6.0384
285
root -12.7457 13.8308 -3.77512 -156.952 111.968 -175.355
lowerback 42.9808 1.18229 -2.26917
upperback 9.41344 1.06049 -3.3762
thorax -9.73789 0.980786 -2.99577
lowerneck -34.851 7.13557 -3.91668
upperneck 26.5498 16.9972 -11.7739
head 16.2644 4.82162 -0.376156
rclavicle 4.35338e-014 -3.04638e-014
rhumerus -25.9756 9.27065 -88.2455
rradius 49.3468
rwrist -67.7922
rhand 10.7381 -38.417
rfingers 7.12502
rthumb 35.8261 -64.7761
lclavicle 4.35338e-014 -3.04638e-014
lhumerus 130.105 -77.0735 -31.051
lradius 44.4875
lwrist 1.2862
lhand -29.0422 -21.0505
lfingers 7.12502
lthumb -2.39248 8.9158
rfemur -40.8458 -9.41577 -0.554582
rtibia 72.3893
rfoot -28.6764 -29.4621
rtoes -22.1677
lfemur -70.6635 10.5705 -20.358
ltibia 77.3114
lfoot -20.471 1.99635
ltoes -5.162
286
root -12.6094 13.8724 -3.81907 -157.987 112.02 -176.549
lowerback 42.8086 1.29271 -2.66504
upperback 9.37341 1.01289 -3.45762
thorax -9.73166 0.95956 -2.85577
lowerneck -34.8454 6.98132 -4.13234
upperneck 26.7297 16.5896 -10.9918
head 16.1816 4.73153 -0.124183
rclavicle -4.92986e-014 4.87022e-014
rhumerus -26.1177 9.38604 -88.4802
rradius 49.324
rwrist -67.1569
rhand 11.2142 -37.8695
rfingers 7.12502
rthumb 36.2771 -64.1175
lclavicle -4.92986e-014 4.87022e-014
lhumerus 130.878 -77.2017 -31.9202
lradius 44.149
lwrist 2.29638
lhand -29.5209 -21.3646
lfingers 7.12502
lthumb -2.85473 8.59604
rfemur -40.8003 -9.39878 -0.0741911
rtibia 71.6831
rfoot -28.2953 -29.6261
rtoes -21.6694
lfemur -70.1758 10.3825 -20.0865
ltibia 77.4286
lfoot -21.0998 2.17739
ltoes -4.32061
